<?xml version="1.0" encoding="UTF-8"?><svg id="Layer_1" xmlns="http://www.w3.org/2000/svg" width="222" height="93" viewBox="0 0 222 93"><defs><style>.cls-1{fill:#001a96;}.cls-2{fill:#00d99c;}</style></defs><g><path class="cls-2" d="m83.72,46.5c0,22.66-18.37,41.03-41.03,41.03S1.66,69.16,1.66,46.5,20.03,5.47,42.69,5.47s41.03,18.37,41.03,41.03"/><path class="cls-1" d="m62.58,27.11c0-9.95-8.9-18.02-19.89-18.02s-19.89,8.07-19.89,18.02,8.9,18.02,19.89,18.02,19.89-8.07,19.89-18.02"/></g><path class="cls-1" d="m107.61,11.21v4.56h-5.72v15.49h-4.93v-15.49h-5.72v-4.56h16.37Zm6.17,11.61v4.22h8.07l-.48,4.22h-12.55V11.21h12.55l.48,4.22h-8.07v3.91h7.19v3.48s-7.19,0-7.19,0Zm42.59-11.61l7.31,19.91-.11.14h-5.47l-1.22-3.68h-7l-1.19,3.68h-5.38l-.11-.14,7.39-19.91h5.78Zm-5.38,12.92h4.76l-1.08-3.31c-.4-1.25-.93-3.34-1.25-5.21h-.08c-.34,1.87-.88,3.97-1.27,5.24l-1.08,3.29h0Zm33.16-2.84c0-6.4,4.31-10.65,10.25-10.65,2.44,0,4.67.68,6.83,2.01l-.71,4.79h-.17c-1.67-1.44-3.54-2.21-5.44-2.21-3.31,0-5.47,2.38-5.47,5.98s2.18,6.03,5.55,6.03c1.87,0,3.8-.76,5.47-2.21h.17l.68,4.76c-2.12,1.33-4.45,2.04-6.88,2.04-6.12,0-10.28-4.22-10.28-10.54h0Zm23.04-10.08l2.01,4.19c.68,1.5,1.1,2.55,1.67,3.97h.08c.57-1.42.99-2.46,1.64-3.97l2.01-4.19h5.66l.08.14-7,11.95v7.96h-4.93v-7.96l-7-11.95.11-.14h5.67Zm-114.16,44.6v-20.05h6.74c7.34,0,11.5,3.77,11.5,9.97s-4.36,10.08-11.5,10.08h-6.74Zm4.96-4.31h1.56c4.47,0,6.68-1.78,6.68-5.81s-2.18-5.64-6.63-5.64h-1.61v11.44h0Zm19.8-4.12v4.22h8.07l-.48,4.22h-12.55v-20.05h12.55l.48,4.22h-8.07v3.91h7.19v3.48s-7.19,0-7.19,0Zm24.84-4.93c0,4.05-2.52,6.54-7.19,6.54h-2.8v6.83h-4.96v-20.05h7.25c5.13,0,7.7,2.32,7.7,6.68h0Zm-7.93,2.66c2.21,0,3.23-.88,3.23-2.69s-1.08-2.75-3.26-2.75h-2.04v5.44h2.07,0Zm8.89.68c0-6.15,4.39-10.59,10.71-10.59s10.71,4.45,10.71,10.59-4.42,10.59-10.71,10.59-10.71-4.56-10.71-10.59Zm16.23,0c0-3.57-2.21-6.06-5.52-6.06s-5.52,2.49-5.52,6.06,2.24,6.06,5.52,6.06,5.52-2.61,5.52-6.06Zm5.82,8.89l.68-4.47h.2c1.5,1.1,3.63,2.04,5.66,2.04,1.81,0,2.72-.79,2.72-1.87s-.62-1.73-4.02-3.14c-3.85-1.61-5.24-3.37-5.24-6.32,0-3.23,2.63-5.72,7.25-5.72,2.24,0,4.42.62,5.92,1.44l-.68,4.45h-.17c-1.53-1.1-3.48-1.76-5.18-1.76-1.44,0-2.1.65-2.1,1.53,0,.93.42,1.42,3.94,2.95,4.05,1.78,5.35,3.65,5.35,6.29,0,3.6-3,6.29-7.62,6.29-2.83,0-5.18-.85-6.71-1.7h0Zm15.8-18.93h4.96v20.05h-4.96v-20.05Zm22.54,0v4.56h-5.72v15.49h-4.93v-15.49h-5.72v-4.56s16.37,0,16.37,0Zm-111.71,43.47l.68-4.47h.2c1.5,1.1,3.63,2.04,5.66,2.04,1.81,0,2.72-.79,2.72-1.87s-.62-1.73-4.02-3.14c-3.85-1.61-5.24-3.37-5.24-6.32,0-3.23,2.63-5.72,7.25-5.72,2.24,0,4.42.62,5.92,1.44l-.68,4.45h-.17c-1.53-1.1-3.48-1.76-5.18-1.76-1.44,0-2.1.65-2.1,1.53,0,.93.42,1.42,3.94,2.95,4.05,1.78,5.35,3.65,5.35,6.29,0,3.6-3,6.29-7.62,6.29-2.83,0-5.18-.85-6.71-1.7h0Zm15.29-8.85c0-6.4,4.31-10.65,10.25-10.65,2.44,0,4.67.68,6.83,2.01l-.71,4.79h-.17c-1.67-1.44-3.54-2.21-5.44-2.21-3.31,0-5.47,2.38-5.47,5.98s2.18,6.03,5.55,6.03c1.87,0,3.8-.76,5.47-2.21h.17l.68,4.76c-2.12,1.33-4.45,2.04-6.88,2.04-6.12,0-10.28-4.22-10.28-10.54h0Zm31.79-10.08h4.93v20.05h-4.93v-7.96h-7.65v7.96h-4.96v-20.05h4.96v7.79h7.65v-7.79Zm12.89,11.61v4.22h8.07l-.48,4.22h-12.55v-20.05h12.55l.48,4.22h-8.07v3.91h7.19v3.48h-7.19,0Zm10.45,8.44v-20.05h6l5.1,10.37h.08l5.07-10.37h5.98v20.05h-4.84v-7.96c0-1.95.06-3.97.11-5.92h-.09l-2.38,4.67-3.65,7.22h-.51l-3.68-7.22c-.79-1.56-1.59-3.12-2.35-4.67h-.08c.03,1.95.08,3.97.08,5.92v7.96h-4.84Zm29.58-8.44v4.22h8.07l-.48,4.22h-12.55v-20.05h12.55l.48,4.22h-8.07v3.91h7.19v3.48h-7.19,0Zm-55.18-60.71v11.69c-1.14-1.83-2.03-3.06-2.92-4.21l-5.75-7.48h-4.79v20.05h4.93v-12.09c1.18,1.82,2.09,3.04,2.97,4.19l6.37,8.04h4.08V11.21h-4.9,0Zm40.99,0v11.69c-1.14-1.83-2.03-3.06-2.92-4.21l-5.75-7.48h-4.79v20.05h4.93v-12.09c1.18,1.82,2.09,3.04,2.97,4.19l6.37,8.04h4.08V11.21h-4.9,0Z"/></svg>